<?xml version="1.0" encoding="UTF-8"?>
<!DOCTYPE svg PUBLIC "-//W3C//DTD SVG 1.1//EN" "http://www.w3.org/Graphics/SVG/1.1/DTD/svg11.dtd">
<!-- Creator: CorelDRAW 2018 (64 Bit Versión de evaluación) -->
<svg xmlns="http://www.w3.org/2000/svg" xml:space="preserve" width="42.7258mm" height="20.8759mm" version="1.1" style="shape-rendering:geometricPrecision; text-rendering:geometricPrecision; image-rendering:optimizeQuality; fill-rule:evenodd; clip-rule:evenodd"
viewBox="0 0 2063.59 1008.27"
 xmlns:xlink="http://www.w3.org/1999/xlink">
 <defs>
  <style type="text/css">
   <![CDATA[
    .fil0 {fill:#5EA4FF}
    .fil1 {fill:#DB9E2C}
    .fil3 {fill:#5EA4FF;fill-rule:nonzero}
    .fil2 {fill:#DB9E2C;fill-rule:nonzero}
   ]]>
  </style>
 </defs>
 <g id="Capa_x0020_1">
  <metadata id="CorelCorpID_0Corel-Layer"/>
  <g id="_2322319948208">
   <path class="fil0" d="M863.51 240.62l0 0 0.47 0.52 0 0 0.45 0.53 0 0 0.44 0.54 0 0 0.43 0.55 0 0 0.41 0.56 0 0 0.4 0.56 0 0 0.38 0.57 0 0 0.36 0.58 0 0 0.35 0.58 0 0 0.33 0.59 0 0 0.31 0.6 0 0 0.29 0.6 0.28 0.61 0 0 0.27 0.61 0 0 0.25 0.62 0 0 0.23 0.62 0.22 0.63 0.2 0.64 0 0 0.19 0.64 0.17 0.64 0 0 0.16 0.64 0.14 0.65 0.13 0.65 0 0 0.11 0.65 0.09 0.65 0.08 0.65 0 0 0.06 0.66 0.05 0.66 0.03 0.66 0.01 0.66 0 0 0 0.66 -0.01 0.66 -0.03 0.66 -0.05 0.66 -0.06 0.66 -0.08 0.66 -0.09 0.65 -0.11 0.65 -0.13 0.65 0 0 -0.14 0.65 -0.15 0.64 -0.17 0.64 -0.19 0.64 -0.2 0.63 0 0 -0.22 0.63 -0.23 0.62 -0.25 0.62 -0.27 0.61 -0.28 0.61 -0.29 0.6 -0.3 0.59 -0.33 0.59 -0.34 0.58 -0.36 0.57 -0.37 0.57 -0.39 0.56 -0.4 0.55 -0.42 0.55 -0.43 0.53 -0.45 0.53 -0.46 0.52 -0.48 0.51 -0.49 0.5 -0.51 0.48 -93.96 87.62c-11.02,10.27 -28.44,9.66 -38.71,-1.35 -10.28,-11.02 -9.67,-28.44 1.35,-38.72l93.96 -87.61c11.02,-10.28 28.44,-9.67 38.72,1.35zm0 527.02l0 0 0.47 -0.52 0 0 0.45 -0.53 0 -0 0.44 -0.54 0 0 0.43 -0.55 0 0 0.41 -0.56 0 -0 0.4 -0.56 0 0 0.38 -0.57 0 0 0.36 -0.58 0 0 0.35 -0.58 0 0 0.33 -0.59 0 -0 0.31 -0.59 0 -0 0.29 -0.6 0.28 -0.61 0 -0 0.27 -0.61 0 0 0.25 -0.62 0 0 0.23 -0.63 0.22 -0.63 0.2 -0.63 0 0 0.19 -0.64 0.17 -0.64 0 -0 0.16 -0.64 0.14 -0.64 0.13 -0.65 0 0 0.11 -0.65 0.09 -0.65 0.08 -0.65 0 -0 0.06 -0.65 0.05 -0.66 0.03 -0.66 0.01 -0.66 0 0 0 -0.66 -0.01 -0.66 -0.03 -0.66 -0.05 -0.66 -0.06 -0.65 -0.08 -0.66 -0.09 -0.65 -0.11 -0.65 -0.13 -0.65 0 0 -0.14 -0.65 -0.15 -0.64 -0.17 -0.64 -0.19 -0.64 -0.2 -0.63 0 0 -0.22 -0.63 -0.23 -0.62 -0.25 -0.62 -0.27 -0.61 -0.28 -0.6 -0.29 -0.6 -0.3 -0.6 -0.33 -0.59 -0.34 -0.58 -0.36 -0.57 -0.37 -0.57 -0.39 -0.56 -0.4 -0.55 -0.42 -0.55 -0.43 -0.53 -0.45 -0.53 -0.46 -0.52 -0.48 -0.51 -0.49 -0.5 -0.51 -0.49 -93.96 -87.61c-11.02,-10.28 -28.44,-9.67 -38.71,1.35 -10.28,11.02 -9.67,28.44 1.35,38.72l93.96 87.61c11.02,10.28 28.44,9.67 38.72,-1.35zm-53.93 -227.89l-8.83 -8.23 -38.64 0 -10.31 9.61 -132.5 123.56 0 38.27 142.99 133.34c11.02,10.28 11.63,27.69 1.35,38.72 -10.27,11.02 -27.7,11.63 -38.72,1.35l-105.63 -98.5 0 201.39c0,15.06 -12.33,27.39 -27.39,27.39 -15.06,0 -27.39,-12.33 -27.39,-27.39 0,-316.76 0,-633.52 0,-950.28 0,-15.06 12.33,-27.39 27.39,-27.39 15.07,0 27.39,12.33 27.39,27.39l0 201.39 105.63 -98.5c11.02,-10.28 28.44,-9.67 38.72,1.35 10.28,11.02 9.67,28.44 -1.35,38.72l-142.99 133.34 0 38.27 132.5 123.56 10.31 9.61 38.64 0 8.83 -8.23 149.45 -139.37c3.12,-2.92 6.77,-4.96 10.61,-6.13 9.71,-2.97 20.74,-0.42 28.1,7.48 10.28,11.02 9.67,28.44 -1.35,38.72l-115.31 107.53 231.31 0 0.7 0.01 0.7 0.02 0.7 0.04 0.69 0.06 0.69 0.08 0.68 0.1 0.68 0.11 0.67 0.13 0.67 0.15 0.66 0.16 0.65 0.18 0.64 0.19 0.64 0.21 0.63 0.22 0.63 0.24 0.62 0.25 0.61 0.27 0.6 0.28 0.59 0.3 0.58 0.31 0.58 0.32 0.57 0.34 0.56 0.35 0.55 0.37 0.54 0.38 0.53 0.39 0.53 0.4 0.51 0.42 0.5 0.43 0.49 0.44 0.48 0.45 0.47 0.46 0.46 0.47 0.45 0.48 0.44 0.49 0.43 0.5 0.41 0.51 0.4 0.52 0.39 0.54 0.38 0.54 0.36 0.55 0.35 0.56 0.34 0.57 0 0 0.32 0.58 0.31 0.58 0 0 0.3 0.59 0 0 0.28 0.6 0.27 0.61 0.26 0.62 0.24 0.62 0.23 0.63 0.21 0.64 0.19 0.64 0 0 0.18 0.65 0.16 0.66 0 0 0.14 0.66 0 0 0.13 0.67 0.11 0.67 0 0 0.1 0.68 0.08 0.69 0 0 0.06 0.69 0 0 0.05 0.69 0 0 0.02 0.7 0.01 0.7 0 0 -0.01 0.7 -0.02 0.7 0 0 -0.05 0.7 0 0 -0.06 0.69 0 0 -0.08 0.69 -0.1 0.68 0 0 -0.11 0.68 -0.13 0.67 0 0 -0.14 0.66 0 0 -0.16 0.66 -0.18 0.65 0 0 -0.19 0.64 -0.21 0.64 -0.23 0.63 -0.24 0.63 -0.26 0.62 -0.27 0.61 -0.28 0.6 0 0 -0.3 0.59 0 0 -0.31 0.58 -0.32 0.58 0 0 -0.34 0.57 -0.35 0.57 -0.36 0.55 -0.38 0.54 -0.39 0.53 -0.4 0.53 -0.41 0.51 -0.43 0.5 -0.44 0.49 -0.45 0.48 -0.46 0.47 0 0 -0.47 0.46 -0.48 0.45 -0.49 0.44 -0.5 0.43 -0.51 0.41 -0.53 0.4 -0.53 0.39 -0.54 0.38 -0.55 0.36 -0.56 0.35 -0.57 0.34 -0.58 0.32 -0.58 0.31 -0.59 0.3 -0.6 0.28 -0.61 0.27 -0.62 0.26 -0.63 0.24 -0.63 0.23 -0.64 0.21 -0.64 0.19 -0.65 0.18 -0.66 0.16 -0.67 0.14 -0.67 0.13 -0.68 0.11 -0.68 0.1 -0.69 0.08 -0.69 0.06 -0.7 0.05 -0.7 0.02 -0.7 0.01 -231.31 0 115.31 107.53c11.02,10.27 11.63,27.69 1.35,38.72 -7.36,7.89 -18.39,10.45 -28.1,7.48 -3.84,-1.17 -7.49,-3.21 -10.61,-6.12l-149.45 -139.37zm-190.27 50.03l62.47 -58.26 29.38 -27.39 -29.38 -27.39 -62.47 -58.26c0,57.1 0,114.2 0,171.3zm110.18 -224.18l0 0z"/>
   <path class="fil1" d="M479.94 0l0.01 0c14.28,0 25.95,11.67 25.95,25.95l0 132.88c0,14.28 -11.67,25.95 -25.95,25.95l-0.01 0c-14.28,0 -25.95,-11.67 -25.95,-25.95l0 -132.88c0,-14.28 11.67,-25.95 25.95,-25.95z"/>
   <path class="fil1" d="M-0 504.14l0 -0c0,-14.28 11.67,-25.96 25.95,-25.96l132.88 0c14.28,0 25.95,11.67 25.95,25.96l0 0c0,14.28 -11.67,25.95 -25.95,25.95l-132.88 0c-14.28,0 -25.95,-11.67 -25.95,-25.95z"/>
   <path class="fil1" d="M157.73 147.03l0 -0c10.09,-10.1 26.61,-10.1 36.7,0l93.96 93.96c10.09,10.09 10.09,26.61 -0,36.7l-0 0c-10.09,10.09 -26.6,10.09 -36.7,0l-93.96 -93.96c-10.09,-10.1 -10.09,-26.61 0,-36.7z"/>
   <path class="fil1" d="M479.94 1008.27l0.01 0c14.28,0 25.95,-11.67 25.95,-25.95l0 -132.88c0,-14.28 -11.67,-25.95 -25.95,-25.95l-0.01 0c-14.28,0 -25.95,11.67 -25.95,25.95l0 132.88c0,14.28 11.67,25.95 25.95,25.95z"/>
   <path class="fil1" d="M157.73 861.25l0 0c10.09,10.09 26.61,10.09 36.7,0l93.96 -93.96c10.09,-10.09 10.09,-26.6 -0,-36.7l-0 -0c-10.09,-10.1 -26.6,-10.1 -36.7,0l-93.96 93.96c-10.09,10.09 -10.09,26.61 0,36.7z"/>
   <path class="fil1" d="M502.31 253.17c-138.6,0 -250.96,112.36 -250.96,250.97 0,138.6 112.36,250.96 250.96,250.96 3.4,0 6.77,-0.07 10.13,-0.2l0 -45.15c-0.99,0.01 -1.98,0.02 -2.97,0.02 -113.57,0 -205.63,-92.07 -205.63,-205.63 0,-113.57 92.06,-205.64 205.63,-205.64 0.99,0 1.98,0.01 2.97,0.02l0 -45.15c-3.36,-0.14 -6.74,-0.2 -10.13,-0.2z"/>
  </g>
  <path class="fil2" d="M1077.36 693.36l18.87 0c10.32,0 17.68,0.91 22.06,2.75 4.4,1.84 7.91,4.92 10.58,9.19 2.66,4.27 4.01,9.32 4.01,15.17 0,6.13 -1.48,11.27 -4.4,15.39 -2.95,4.13 -7.37,7.25 -13.28,9.36l22.03 41.49 -19.41 0 -20.98 -39.52 -1.8 0 0 39.52 -17.68 0 0 -93.35zm17.68 36.53l5.64 0c5.72,0 9.64,-0.74 11.81,-2.23 2.14,-1.5 3.23,-3.97 3.23,-7.43 0,-2.04 -0.54,-3.82 -1.6,-5.33 -1.06,-1.52 -2.49,-2.6 -4.29,-3.25 -1.78,-0.67 -5.07,-0.99 -9.86,-0.99l-4.92 0 0 19.24zm56.68 -36.53l50.96 0 0 17.42 -33.28 0 0 16.77 33.28 0 0 17.16 -33.28 0 0 24.57 33.28 0 0 17.42 -50.96 0 0 -93.35zm67.73 0l46.28 0 0 17.16 -28.6 0 0 17.03 28.6 0 0 17.16 -28.6 0 0 42 -17.68 0 0 -93.35zm63.32 0l18.87 0c10.32,0 17.68,0.91 22.06,2.75 4.4,1.84 7.91,4.92 10.58,9.19 2.66,4.27 4.01,9.32 4.01,15.17 0,6.13 -1.48,11.27 -4.4,15.39 -2.95,4.13 -7.37,7.25 -13.28,9.36l22.03 41.49 -19.41 0 -20.98 -39.52 -1.8 0 0 39.52 -17.68 0 0 -93.35zm17.68 36.53l5.64 0c5.72,0 9.64,-0.74 11.81,-2.23 2.14,-1.5 3.23,-3.97 3.23,-7.43 0,-2.04 -0.54,-3.82 -1.6,-5.33 -1.06,-1.52 -2.49,-2.6 -4.29,-3.25 -1.78,-0.67 -5.07,-0.99 -9.86,-0.99l-4.92 0 0 19.24zm55.25 -36.53l17.68 0 0 93.35 -17.68 0 0 -93.35zm123.99 15.25l-12.5 12.37c-7.91,-8.37 -17.14,-12.55 -27.67,-12.55 -9.17,0 -16.86,3.03 -23.06,9.12 -6.2,6.09 -9.29,13.48 -9.29,22.19 0,8.99 3.21,16.62 9.64,22.88 6.43,6.26 14.36,9.38 23.79,9.38 6.13,0 11.31,-1.3 15.51,-3.88 4.21,-2.58 7.61,-6.61 10.19,-12.11l-27.02 0 0 -16.64 46.94 0 0.13 3.92c0,8.17 -2.13,15.9 -6.35,23.23 -4.25,7.3 -9.73,12.9 -16.45,16.75 -6.74,3.83 -14.65,5.77 -23.7,5.77 -9.68,0 -18.33,-2.11 -25.94,-6.31 -7.61,-4.23 -13.61,-10.21 -18.05,-17.99 -4.42,-7.8 -6.63,-16.18 -6.63,-25.2 0,-12.35 4.1,-23.1 12.26,-32.22 9.69,-10.88 22.32,-16.32 37.86,-16.32 8.12,0 15.73,1.5 22.82,4.51 5.96,2.53 11.81,6.91 17.53,13.08zm23.01 -15.25l50.96 0 0 17.42 -33.28 0 0 16.77 33.28 0 0 17.16 -33.28 0 0 24.57 33.28 0 0 17.42 -50.96 0 0 -93.35zm68.65 0l18.87 0c10.32,0 17.68,0.91 22.06,2.75 4.4,1.84 7.91,4.92 10.58,9.19 2.66,4.27 4.01,9.32 4.01,15.17 0,6.13 -1.48,11.27 -4.4,15.39 -2.95,4.13 -7.37,7.25 -13.28,9.36l22.03 41.49 -19.41 0 -20.98 -39.52 -1.8 0 0 39.52 -17.68 0 0 -93.35zm17.68 36.53l5.64 0c5.72,0 9.64,-0.74 11.81,-2.23 2.14,-1.5 3.23,-3.97 3.23,-7.43 0,-2.04 -0.54,-3.82 -1.6,-5.33 -1.06,-1.52 -2.49,-2.6 -4.29,-3.25 -1.78,-0.67 -5.07,-0.99 -9.86,-0.99l-4.92 0 0 19.24zm85.09 -36.53l17.89 0 35.93 93.35 -18.48 0 -7.28 -19.24 -38.27 0 -7.46 19.24 -18.48 0 36.14 -93.35zm8.97 24.81l-12.65 32.13 25.25 0 -12.59 -32.13zm144.46 -8.43l-12.46 11.83c-8.48,-8.93 -17.99,-13.39 -28.58,-13.39 -8.93,0 -16.47,3.05 -22.58,9.14 -6.13,6.09 -9.19,13.59 -9.19,22.51 0,6.22 1.37,11.75 4.08,16.56 2.7,4.83 6.54,8.62 11.48,11.37 4.97,2.75 10.47,4.12 16.53,4.12 5.16,0 9.88,-0.95 14.15,-2.88 4.29,-1.93 8.99,-5.44 14.11,-10.51l12.06 12.61c-6.89,6.74 -13.41,11.42 -19.54,14.02 -6.13,2.62 -13.15,3.93 -21.02,3.93 -14.52,0 -26.41,-4.6 -35.67,-13.8 -9.25,-9.19 -13.87,-21 -13.87,-35.36 0,-9.32 2.1,-17.57 6.33,-24.81 4.21,-7.24 10.23,-13.05 18.09,-17.44 7.84,-4.4 16.3,-6.61 25.38,-6.61 7.69,0 15.1,1.63 22.25,4.88 7.13,3.25 13.28,7.86 18.44,13.85zm14.28 -16.38l17.68 0 0 93.35 -17.68 0 0 -93.35zm81.69 -2.34c13.2,0 24.55,4.79 34.04,14.34 9.51,9.56 14.26,21.21 14.26,34.95 0,13.63 -4.68,25.15 -14.06,34.58 -9.36,9.43 -20.73,14.15 -34.1,14.15 -14.02,0 -25.66,-4.85 -34.91,-14.54 -9.27,-9.68 -13.91,-21.19 -13.91,-34.52 0,-8.9 2.17,-17.12 6.48,-24.61 4.31,-7.48 10.25,-13.41 17.79,-17.79 7.56,-4.38 15.71,-6.57 24.42,-6.57zm-0.26 17.42c-8.6,0 -15.84,3.01 -21.69,9.02 -5.87,6 -8.8,13.63 -8.8,22.9 0,10.31 3.69,18.48 11.07,24.48 5.74,4.7 12.31,7.04 19.74,7.04 8.39,0 15.54,-3.05 21.43,-9.14 5.92,-6.09 8.86,-13.59 8.86,-22.51 0,-8.89 -2.97,-16.4 -8.93,-22.56 -5.94,-6.16 -13.18,-9.23 -21.69,-9.23zm3.64 -47.19l20.47 0 -23.2 24.83 -12.42 0 15.15 -24.83zm61.93 32.11l16.86 0 40.21 61.43 0 -61.43 17.68 0 0 93.35 -16.99 0 -40.09 -61.23 0 61.23 -17.68 0 0 -93.35z"/>
  <path class="fil3" d="M1447.84 423.11l-31.41 31.08c-19.87,-21.01 -43.05,-31.51 -69.51,-31.51 -23.02,0 -42.35,7.62 -57.91,22.91 -15.57,15.3 -23.35,33.86 -23.35,55.74 0,22.59 8.06,41.74 24.22,57.48 16.17,15.73 36.09,23.57 59.76,23.57 15.41,0 28.41,-3.26 38.97,-9.74 10.56,-6.48 19.11,-16.6 25.58,-30.43l-67.87 0 0 -41.8 117.9 0 0.33 9.85c0,20.52 -5.34,39.95 -15.95,58.35 -10.67,18.34 -24.44,32.38 -41.31,42.07 -16.93,9.64 -36.79,14.48 -59.55,14.48 -24.33,0 -46.05,-5.28 -65.15,-15.84 -19.11,-10.62 -34.18,-25.64 -45.34,-45.18 -11.1,-19.59 -16.65,-40.66 -16.65,-63.3 0,-31.03 10.29,-58.02 30.81,-80.94 24.33,-27.32 56.06,-40.99 95.09,-40.99 20.41,0 39.51,3.76 57.32,11.32 14.97,6.37 29.66,17.36 44.03,32.88zm57.8 -38.32l128.02 0 0 43.76 -83.61 0 0 42.13 83.61 0 0 43.11 -83.61 0 0 61.73 83.61 0 0 43.76 -128.02 0 0 -234.49zm241.18 0l44.96 0 90.25 234.49 -46.43 0 -18.29 -48.33 -96.12 0 -18.73 48.33 -46.43 0 90.79 -234.49zm22.53 62.32l-31.79 80.72 63.41 0 -31.63 -80.72z"/>
 </g>
</svg>
